:FULLY-SPECIFIED
:FORCE-ALL-JOINTS-BE-3DOF
:DEGREES
408
root 7.15659 13.7926 -34.2399 156.727 75.7682 150.146
lfemur 21.3714 -1.46499 -10.4431
ltibia 19.5013 -0 0
lfoot -24.2243 34.44 0.0151457
ltoes -26.7537 0 0
rfemur -67.2041 -16.4457 8.84558
rtibia 80.572 -0 0
rfoot -15.0046 12.7518 0.0183856
rtoes 10.7453 -0 0
lowerback 7.71748 5.08218 -11.9147
upperback -2.69311 5.47336 -1.53071
thorax -8.22485 3.23323 4.14119
lowerneck 0.268174 -11.5501 -10.8837
upperneck 3.85257 -15.6935 9.05371
head 2.66914 -7.83561 3.86125
lclavicle -2.44257e-14 2.13694e-14 0
lhumerus -70.3919 -19.075 106.104
lradius 100.175 -0 0
lwrist 50.182 0 0
lhand -9.10546 41.8857 0.0251942
lfingers 7.12502 -0 0
lthumb 16.8452 71.18 0.0254135
rclavicle -2.44257e-14 2.13694e-14 0
rhumerus 49.7559 -3.78913 -60.8336
rradius 19.2611 -0 0
rwrist 21.5831 0 0
rhand -22.793 -32.3859 0.0580576
rfingers 7.12502 -0 0
rthumb 3.64345 -62.3538 0.0532361
409
root 7.15662 13.7919 -34.2413 156.377 75.7579 149.731
lfemur 21.7997 -1.33126 -10.4656
ltibia 18.7461 -0 0
lfoot -24.3082 34.6161 0.0184784
ltoes -26.7582 0 0
rfemur -67.3126 -16.5717 8.88009
rtibia 80.7656 -0 0
rfoot -15.1345 12.8343 0.0231578
rtoes 10.9398 -0 0
lowerback 7.60567 5.08548 -12.01
upperback -2.73614 5.47886 -1.56341
thorax -8.21371 3.24121 4.16244
lowerneck 0.232465 -11.5192 -10.8825
upperneck 3.89531 -15.648 9.00944
head 2.67893 -7.813 3.84731
lclavicle -2.44257e-14 2.13694e-14 0
lhumerus -70.467 -18.8193 106.063
lradius 100.166 -0 0
lwrist 50.0441 0 0
lhand -9.03929 41.7243 0.0297556
lfingers 7.12502 -0 0
lthumb 16.9089 71.0137 0.0299504
rclavicle -2.44257e-14 2.13694e-14 0
rhumerus 49.8582 -3.76927 -61.0127
rradius 19.0989 -0 0
rwrist 22.0927 0 0
rhand -22.9208 -32.3285 0.0688562
rfingers 7.12502 -0 0
rthumb 3.52017 -62.3021 0.0631425
410
root 7.15665 13.7912 -34.2427 156.07 75.7406 149.363
lfemur 22.1765 -1.21583 -10.4839
ltibia 18.0678 -0 0
lfoot -24.3821 34.7761 0.0216848
ltoes -26.7415 0 0
rfemur -67.4104 -16.6873 8.90689
rtibia 80.9358 -0 0
rfoot -15.2474 12.9197 0.0278906
rtoes 11.0994 -0 0
lowerback 7.50542 5.08764 -12.0981
upperback -2.77576 5.48255 -1.59281
thorax -8.20491 3.24799 4.18299
lowerneck 0.200102 -11.4915 -10.8833
upperneck 3.92763 -15.6071 8.97043
head 2.68615 -7.79267 3.83545
lclavicle -2.44257e-14 2.13694e-14 0
lhumerus -70.5368 -18.582 106.026
lradius 100.159 -0 0
lwrist 49.9144 0 0
lhand -8.98557 41.5778 0.0339582
lfingers 7.12502 -0 0
lthumb 16.9607 70.8632 0.0341199
rclavicle -2.44257e-14 2.13694e-14 0
rhumerus 49.9559 -3.7619 -61.1812
rradius 18.9469 -0 0
rwrist 22.568 0 0
rhand -23.0365 -32.2908 0.0787339
rfingers 7.12502 -0 0
rthumb 3.40846 -62.2694 0.0721947
411
root 7.15668 13.7905 -34.2441 155.833 75.7169 149.071
lfemur 22.4796 -1.12429 -10.495
ltibia 17.5052 -0 0
lfoot -24.446 34.9132 0.0245782
ltoes -26.707 0 0
rfemur -67.4929 -16.7878 8.92604
rtibia 81.0746 -0 0
rfoot -15.3384 13.0031 0.0323069
rtoes 11.2098 -0 0
lowerback 7.42121 5.08775 -12.1731
upperback -2.81037 5.48336 -1.61658
thorax -8.19879 3.25275 4.20216
lowerneck 0.171928 -11.4678 -10.8865
upperneck 3.94729 -15.5716 8.93849
head 2.69029 -7.7751 3.82632
lclavicle -2.44257e-14 2.13694e-14 0
lhumerus -70.5986 -18.3729 105.994
lradius 100.142 -0 0
lwrist 49.7985 0 0
lhand -8.94558 41.4512 0.0375574
lfingers 7.12502 -0 0
lthumb 16.9992 70.7337 0.0376794
rclavicle -2.44257e-14 2.13694e-14 0
rhumerus 50.0452 -3.76646 -61.3297
rradius 18.8151 -0 0
rwrist 22.9852 0 0
rhand -23.1326 -32.2763 0.0870982
rfingers 7.12502 -0 0
rthumb 3.31576 -62.2592 0.0798485
412
root 7.15671 13.7898 -34.2455 155.69 75.6877 148.88
lfemur 22.6866 -1.06226 -10.4965
ltibia 17.0973 -0 0
lfoot -24.4998 35.0206 0.0269667
ltoes -26.6479 0 0
rfemur -67.5556 -16.8685 8.93763
rtibia 81.1739 -0 0
rfoot -15.4028 13.0798 0.036101
rtoes 11.2569 -0 0
lowerback 7.35749 5.08493 -12.2292
upperback -2.8384 5.48021 -1.63236
thorax -8.1957 3.25468 4.21927
lowerneck 0.148789 -11.4487 -10.8925
upperneck 3.95204 -15.5427 8.9154
head 2.69085 -7.7608 3.82058
lclavicle -2.44257e-14 2.13694e-14 0
lhumerus -70.6496 -18.2018 105.97
lradius 100.147 -0 0
lwrist 49.7018 0 0
lhand -8.92061 41.3497 0.0403083
lfingers 7.12502 -0 0
lthumb 17.0233 70.6304 0.0403871
rclavicle -2.44257e-14 2.13694e-14 0
rhumerus 50.1224 -3.78245 -61.4483
rradius 18.7031 -0 0
rwrist 23.3205 0 0
rhand -23.2013 -32.2888 0.0933599
rfingers 7.12502 -0 0
rthumb 3.2495 -62.275 0.0855646
413
root 7.15674 13.7891 -34.2469 155.667 75.6537 148.819
lfemur 22.7753 -1.03533 -10.4856
ltibia 16.883 -0 0
lfoot -24.5432 35.0916 0.0286599
ltoes -26.5576 0 0
rfemur -67.5938 -16.9248 8.94173
rtibia 81.2259 -0 0
rfoot -15.4361 13.1447 0.0389507
rtoes 11.2263 -0 0
lowerback 7.31874 5.07829 -12.2607
upperback -2.85827 5.47202 -1.63781
thorax -8.19598 3.25297 4.23365
lowerneck 0.131529 -11.4349 -10.9019
upperneck 3.93963 -15.5214 8.90297
head 2.68732 -7.75024 3.8189
lclavicle -2.44257e-14 2.13694e-14 0
lhumerus -70.6871 -18.0785 105.956
lradius 100.151 -0 0
lwrist 49.63 0 0
lhand -8.91191 41.2784 0.041975
lfingers 7.12502 -0 0
lthumb 17.0316 70.5585 0.04201
rclavicle -2.44257e-14 2.13694e-14 0
rhumerus 50.1834 -3.80937 -61.5276
rradius 18.6259 -0 0
rwrist 23.5499 0 0
rhand -23.2348 -32.3321 0.0969584
rfingers 7.12502 -0 0
rthumb 3.21712 -62.3201 0.0888313
414
root 7.15677 13.7885 -34.2483 155.788 75.6153 148.914
lfemur 22.7234 -1.04905 -10.4596
ltibia 16.9012 -0 0
lfoot -24.5762 35.1193 0.0294753
ltoes -26.4292 0 0
rfemur -67.6031 -16.952 8.9384
rtibia 81.2225 -0 0
rfoot -15.4334 13.1933 0.0405335
rtoes 11.1039 -0 0
lowerback 7.30939 5.06695 -12.2615
upperback -2.86838 5.45772 -1.63059
thorax -8.19996 3.24679 4.24461
lowerneck 0.120994 -11.4271 -10.9149
upperneck 3.9078 -15.5086 8.903
head 2.67918 -7.74392 3.82194
lclavicle -2.44257e-14 2.13694e-14 0
lhumerus -70.7083 -18.0129 105.955
lradius 100.162 -0 0
lwrist 49.5887 0 0
lhand -8.92078 41.2426 0.0423408
lfingers 7.12502 -0 0
lthumb 17.0231 70.5233 0.0423345
rclavicle -2.44257e-14 2.13694e-14 0
rhumerus 50.2246 -3.84673 -61.5579
rradius 18.5882 -0 0
rwrist 23.6498 0 0
rhand -23.2256 -32.4098 0.0973908
rfingers 7.12502 -0 0
rthumb 3.22604 -62.398 0.0891913
415
root 7.1568 13.7878 -34.2497 156.076 75.5728 149.19
lfemur 22.5085 -1.10881 -10.4153
ltibia 17.1907 -0 0
lfoot -24.5987 35.0969 0.0292446
ltoes -26.2561 0 0
rfemur -67.579 -16.9456 8.92777
rtibia 81.1557 -0 0
rfoot -15.39 13.2205 0.0405464
rtoes 10.8755 -0 0
lowerback 7.33392 5.04995 -12.2259
upperback -2.86716 5.43622 -1.60836
thorax -8.20799 3.23533 4.25149
lowerneck 0.118032 -11.426 -10.9321
upperneck 3.85431 -15.5054 8.9173
head 2.66592 -7.74233 3.83034
lclavicle -2.44257e-14 2.13694e-14 0
lhumerus -70.7104 -18.0147 105.968
lradius 100.162 -0 0
lwrist 49.5832 0 0
lhand -8.94848 41.2473 0.041219
lfingers 7.12502 -0 0
lthumb 16.9964 70.53 0.0411773
rclavicle -2.44257e-14 2.13694e-14 0
rhumerus 50.2418 -3.89402 -61.5294
rradius 18.5974 -0 0
rwrist 23.5962 0 0
rhand -23.1659 -32.5257 0.0942466
rfingers 7.12502 -0 0
rthumb 3.28372 -62.5122 0.0862733
